:SAMPLES-PER-SECOND 30
:FULLY-SPECIFIED
:DEGREES
171
root  34.97820276 36.5077612 -14.73486592 11.0167675 4.747787476 4.277473927
lowerback  -8.020770073 3.2114501 3.37809968
upperback  -3.95036006 3.730390072 -4.330800056
thorax  0.9029639959 1.643540025 -6.076680183
lowerneck  -16.83189964 5.540329933 7.625579834
upperneck  16.23489952 4.804130077 2.900049925
head  7.943359852 2.960119963 0.2872260213
lclavicle  0 -4.497500157e-015 -2.743230041e-014
lhumerus  -41.91569901 24.10650063 70.479599
lradius  -0.07548384368 -6.507048965e-006 26.12750053
lwrist  4.824992743e-007 -3.790274832e-007 -30.46579742
lhand  -4.453798173e-031 -37.54880142 -10.57530022
lfingers  90 7.125020027 -90
lthumb  95.09780034 -25.38949752 101.7531678
rclavicle  0 -4.497500157e-015 -2.743230041e-014
rhumerus  67.27179718 13.16940022 -54.78329849
rradius  -5.16745672e-007 2.214343908e-008 48.77109909
rwrist  -3.062178075e-005 0.01433109865 -163.5650024
rhand  -1.771734989e-031 4.784029961 -7.616950035
rfingers  -90 -7.125020027 -90
rthumb  -85.02642003 -8.484519912 -59.46684463
rfemur  -14.10420322 13.01283741 13.28042412
rtibia  -2.061297178 0.6537228823 22.73970222
rfoot  -1.724009991 -17.98912811 -41.54378891
rtoes  3.875084048 19.63610089 -101.3963487
lfemur  -10.99292374 -19.94159317 -19.64391518
ltibia  3.412731409 1.30977726 14.55916882
lfoot  1.047031522 -27.73296165 32.72875595
ltoes  -8.720869976 -18.06899025 -116.3152485
172
root  34.97943728 36.50677598 -14.73442288 11.03052998 4.861118317 4.283231258
lowerback  -8.026579857 3.26199007 3.441480637
upperback  -3.960119963 3.792720079 -4.368360043
thorax  0.9105579853 1.673509955 -6.146249771
lowerneck  -16.86429977 5.495669842 7.625450134
upperneck  16.18359947 4.73032999 2.955110073
head  7.929150105 2.929150105 0.2964801192
lclavicle  0 -4.497500157e-015 -2.743230041e-014
lhumerus  -41.87620163 23.99290085 70.50769806
lradius  -0.07667475939 -6.507048965e-006 26.12879944
lwrist  4.824992743e-007 -3.790274832e-007 -30.50639725
lhand  -4.451798094e-031 -37.51530075 -10.63510036
lfingers  90 7.125020027 -90
lthumb  95.09554972 -25.44926058 101.723054
rclavicle  0 -4.497500157e-015 -2.743230041e-014
rhumerus  67.52279663 13.12959957 -55.09280396
rradius  -5.16745672e-007 2.214343908e-008 48.03329849
rwrist  -3.062178075e-005 0.01427145209 -162.6990051
rhand  -1.771622033e-031 4.740180016 -7.438690186
rfingers  -90 -7.125020027 -90
rthumb  -84.94509243 -8.635148667 -59.49601314
rfemur  -14.10808945 12.97680855 13.29160404
rtibia  -2.074076653 0.6709271669 22.7550106
rfoot  -1.735006213 -17.94262123 -41.58660507
rtoes  3.852903831 19.64029916 -101.3303518
lfemur  -10.9747467 -19.9098587 -19.64850807
ltibia  3.442620039 1.369382024 14.5163002
lfoot  1.072304606 -27.84356308 32.68293762
ltoes  -8.697385166 -18.08001346 -116.239553
173
root  34.97747286 36.50604308 -14.73402339 11.05469322 5.001970768 4.320074558
lowerback  -8.037570953 3.277930021 3.516160727
upperback  -3.972719908 3.808350086 -4.37553978
thorax  0.910679996 1.680259943 -6.194819927
lowerneck  -16.85499954 5.506539822 7.728300095
upperneck  16.17090034 4.737539768 2.873899937
head  7.928470135 2.931010008 0.2540379465
lclavicle  0 -4.497500157e-015 -2.743230041e-014
lhumerus  -41.87200165 23.9197998 70.53379822
lradius  -0.0778695941 -6.507048965e-006 26.12109756
lwrist  4.824992743e-007 -3.790274832e-007 -30.42709923
lhand  -0 -37.48469925 -10.64169979
lfingers  90 7.125020027 -90
lthumb  95.08271006 -25.45687154 101.6910042
rclavicle  0 -4.497500157e-015 -2.743230041e-014
rhumerus  67.83339691 13.14400005 -55.63550186
rradius  -5.16745672e-007 2.214343908e-008 47.09059906
rwrist  -3.062178075e-005 0.01421180367 -161.9589996
rhand  -1.771442025e-031 4.669439793 -7.400259972
rfingers  -90 -7.125020027 -90
rthumb  -84.94188203 -8.663678945 -59.56200401
rfemur  -14.137043 12.94801617 13.28958607
rtibia  -2.10709095 0.6909536719 22.82639503
rfoot  -1.777471542 -17.88343811 -41.66122437
rtoes  3.882238788 19.63474127 -101.4176404
lfemur  -10.9157505 -19.95404053 -19.69903374
ltibia  3.516256571 1.410338759 14.38505077
lfoot  1.08414638 -27.86690521 32.65127945
ltoes  -8.699772685 -18.07889452 -116.2472463
174
root  34.97724458 36.50561956 -14.73391676 11.07557201 5.128073692 4.353877068
lowerback  -8.041660309 3.289330006 3.539099455
upperback  -3.983409882 3.821949959 -4.36495018
thorax  0.9043620229 1.686699986 -6.195400238
lowerneck  -16.91790009 5.577539921 7.905489922
upperneck  16.2595005 4.814540386 2.706320047
head  7.980169773 2.965529919 0.1837059408
lclavicle  0 -4.497500157e-015 -2.743230041e-014
lhumerus  -41.84830093 23.8621006 70.57520294
lradius  -0.07906830311 -6.507048965e-006 26.09659958
lwrist  4.824992743e-007 -3.790274832e-007 -30.32119942
lhand  -0 -37.44829941 -10.54469967
lfingers  90 7.125020027 -90
lthumb  95.04398143 -25.36320994 101.6428053
rclavicle  0 -4.497500157e-015 -2.743230041e-014
rhumerus  68.1332016 13.2025013 -55.57389832
rradius  -5.16745672e-007 2.214343908e-008 46.49779892
rwrist  -3.062178075e-005 0.01415215433 -161.1929932
rhand  -1.771493782e-031 4.689889908 -7.321790218
rfingers  -90 -7.125020027 -90
rthumb  -84.89686875 -8.732641804 -59.53599597
rfemur  -14.15841484 12.94288921 13.2846632
rtibia  -2.139744043 0.7183132172 22.88091469
rfoot  -1.819732785 -17.79608917 -41.76823425
rtoes  3.881384704 19.63490371 -101.4150987
lfemur  -10.90004444 -19.96687317 -19.73629379
ltibia  3.557269573 1.442611217 14.32194233
lfoot  1.077987432 -27.91032982 32.55233383
ltoes  -8.695706598 -18.08079991 -116.2341444
175
root  34.97743682 36.50575473 -14.73352928 11.09902382 5.260588646 4.370706081
lowerback  -8.0519104 3.307660103 3.550300121
upperback  -4.01887989 3.842410088 -4.355549812
thorax  0.8759940267 1.694360018 -6.190229893
lowerneck  -16.83679962 5.596879959 7.999599934
upperneck  16.25300026 4.848040581 2.600689888
head  7.970029831 2.976759911 0.135880962
lclavicle  0 -4.497500157e-015 -2.743230041e-014
lhumerus  -41.89839935 23.73380089 70.61859894
lradius  -0.08027084917 -6.507048965e-006 26.09300232
lwrist  4.824992743e-007 -3.790274832e-007 -30.25040054
lhand  -4.44596016e-031 -37.41719818 -10.4666996
lfingers  90 7.125020027 -90
lthumb  95.01212002 -25.28797094 101.6021641
rclavicle  0 -4.497500157e-015 -2.743230041e-014
rhumerus  68.33769989 13.25689888 -55.91069794
rradius  -5.16745672e-007 2.214343908e-008 45.79550171
rwrist  -3.062178075e-005 0.01409250405 -160.4089966
rhand  -1.771389417e-031 4.648560047 -7.174099922
rfingers  -90 -7.125020027 -90
rthumb  -84.83089073 -8.85728975 -59.56468851
rfemur  -14.18429756 12.93576527 13.29247475
rtibia  -2.168178082 0.7482708097 22.92384338
rfoot  -1.859136105 -17.71136856 -41.88230515
rtoes  3.881776104 19.63482928 -101.4162635
lfemur  -10.95732689 -20.02328491 -19.7239151
ltibia  3.547819853 1.44516468 14.35774899
lfoot  1.064828634 -27.92494011 32.45956039
ltoes  -8.656019616 -18.09933869 -116.1063329
176
root  34.97608515 36.50586586 -14.7325711 11.11588478 5.409685612 4.374843121
lowerback  -8.054862022 3.32723999 3.583649635
upperback  -4.030479908 3.866280079 -4.358789921
thorax  0.8666890264 1.705520034 -6.210790157
lowerneck  -16.82999992 5.578690052 7.971099854
upperneck  16.22520065 4.832469463 2.607520103
head  7.957960129 2.96807003 0.1400629729
lclavicle  0 -4.497500157e-015 -2.743230041e-014
lhumerus  -41.86886978 23.61620903 70.70629883
lradius  -0.08147717267 -6.507048965e-006 26.08169746
lwrist  4.824992743e-007 -3.790274832e-007 -30.25100136
lhand  -0 -37.41870117 -10.46240044
lfingers  90 7.125020027 -90
lthumb  95.01189128 -25.2837258 101.6034167
rclavicle  0 -4.497500157e-015 -2.743230041e-014
rhumerus  68.54519653 13.22809887 -56.28860092
rradius  -5.16745672e-007 2.214343908e-008 45.13069916
rwrist  -3.062178075e-005 0.01403285377 -159.772995
rhand  -1.771580414e-031 4.723919868 -7.538799763
rfingers  -90 -7.125020027 -90
rthumb  -85.00023236 -8.547837055 -59.51951854
rfemur  -14.17875195 12.89522743 13.32659149
rtibia  -2.189071655 0.7941957116 22.92881393
rfoot  -1.86346674 -17.5935936 -41.95471191
rtoes  3.872129438 19.63666159 -101.3875565
lfemur  -11.04388523 -20.10578346 -19.67884636
ltibia  3.513710022 1.445289612 14.44729042
lfoot  1.052993894 -27.95908356 32.36281204
ltoes  -8.64364215 -18.10509876 -116.0664972
177
root  34.97901977 36.50569465 -14.73491699 11.1227541 5.547471046 4.375051498
lowerback  -8.054999352 3.363159895 3.592400074
upperback  -4.028860092 3.914299965 -4.368030071
thorax  0.8819109797 1.730200052 -6.220009804
lowerneck  -16.88139915 5.550330162 7.922070026
upperneck  16.19910049 4.796689987 2.642819881
head  7.954820156 2.951760054 0.1560280174
lclavicle  0 -4.497500157e-015 -2.743230041e-014
lhumerus  -41.78639984 23.44720078 70.81800079
lradius  -0.08268725127 -6.507048965e-006 26.05809975
lwrist  4.824992743e-007 -3.790274832e-007 -30.26460075
lhand  -4.445983938e-031 -37.41759872 -10.39480019
lfingers  90 7.125020027 -90
lthumb  94.99632376 -25.21750307 101.5957852
rclavicle  0 -4.497500157e-015 -2.743230041e-014
rhumerus  68.770401 13.17389965 -56.37340164
rradius  -5.16745672e-007 2.214343908e-008 44.52619934
rwrist  -3.062178075e-005 0.01397320256 -159.1170044
rhand  -1.771750501e-031 4.790019989 -7.727749825
rfingers  -90 -7.125020027 -90
rthumb  -85.08196738 -8.389453897 -59.46937626
rfemur  -14.16711903 12.87718964 13.35255623
rtibia  -2.203819275 0.8265576959 22.93299675
rfoot  -1.863794565 -17.51152992 -42.01270294
rtoes  3.880031935 19.63516092 -101.4110729
lfemur  -11.13465309 -20.21104622 -19.63358498
ltibia  3.465126038 1.436249733 14.56093979
lfoot  1.043094516 -27.9906559 32.29576111
ltoes  -8.648619581 -18.10278367 -116.0825151
